<svg xmlns="http://www.w3.org/2000/svg" xmlns:xlink="http://www.w3.org/1999/xlink" width="500" zoomAndPan="magnify" viewBox="0 0 375 374.999991" height="500" preserveAspectRatio="xMidYMid meet" version="1.0"><defs><g/></defs><g fill="#dc291e" fill-opacity="1"><g transform="translate(0.0000045, 207.788303)"><g><path d="M 5.3125 0 L 5.3125 -76.1875 L 21 -76.1875 L 21 -40.671875 L 21.171875 -40.671875 C 25.242188 -44.742188 29.585938 -46.78125 34.203125 -46.78125 C 36.441406 -46.78125 38.664062 -46.484375 40.875 -45.890625 C 43.09375 -45.296875 45.222656 -44.378906 47.265625 -43.140625 C 49.304688 -41.898438 50.957031 -40.144531 52.21875 -37.875 C 53.488281 -35.601562 54.125 -32.957031 54.125 -29.9375 L 54.125 0 L 38.453125 0 L 38.453125 -25.6875 C 38.453125 -28.050781 37.695312 -30.117188 36.1875 -31.890625 C 34.6875 -33.660156 32.722656 -34.546875 30.296875 -34.546875 C 27.929688 -34.546875 25.789062 -33.628906 23.875 -31.796875 C 21.957031 -29.972656 21 -27.9375 21 -25.6875 L 21 0 Z M 5.3125 0 "/></g></g></g><g fill="#dc291e" fill-opacity="1"><g transform="translate(50.228232, 207.788303)"><g><path d="M 8.40625 -5.625 C 4.15625 -10.257812 2.03125 -15.941406 2.03125 -22.671875 C 2.03125 -29.410156 4.15625 -35.113281 8.40625 -39.78125 C 12.664062 -44.445312 18.070312 -46.78125 24.625 -46.78125 C 30.65625 -46.78125 35.617188 -44.890625 39.515625 -41.109375 L 39.515625 -45.453125 L 55.1875 -45.453125 L 55.1875 0 L 39.6875 0 L 39.6875 -5.140625 L 39.515625 -5.140625 C 35.617188 -0.828125 30.65625 1.328125 24.625 1.328125 C 18.070312 1.328125 12.664062 -0.988281 8.40625 -5.625 Z M 21.75 -30.390625 C 19.707031 -28.378906 18.6875 -25.804688 18.6875 -22.671875 C 18.6875 -19.546875 19.660156 -16.992188 21.609375 -15.015625 C 23.566406 -13.035156 26.140625 -12.046875 29.328125 -12.046875 C 32.398438 -12.046875 34.921875 -13.050781 36.890625 -15.0625 C 38.867188 -17.070312 39.859375 -19.613281 39.859375 -22.6875 C 39.859375 -25.8125 38.835938 -28.378906 36.796875 -30.390625 C 34.765625 -32.398438 32.273438 -33.40625 29.328125 -33.40625 C 26.316406 -33.40625 23.789062 -32.398438 21.75 -30.390625 Z M 21.75 -30.390625 "/></g></g></g><g fill="#dc291e" fill-opacity="1"><g transform="translate(102.405379, 207.788303)"><g><path d="M 5.3125 0 L 5.3125 -45.453125 L 21 -45.453125 L 21 -40.671875 L 21.171875 -40.671875 C 25.242188 -44.742188 29.585938 -46.78125 34.203125 -46.78125 C 36.441406 -46.78125 38.664062 -46.484375 40.875 -45.890625 C 43.09375 -45.296875 45.222656 -44.378906 47.265625 -43.140625 C 49.304688 -41.898438 50.957031 -40.144531 52.21875 -37.875 C 53.488281 -35.601562 54.125 -32.957031 54.125 -29.9375 L 54.125 0 L 38.453125 0 L 38.453125 -25.6875 C 38.453125 -28.050781 37.695312 -30.117188 36.1875 -31.890625 C 34.6875 -33.660156 32.722656 -34.546875 30.296875 -34.546875 C 27.929688 -34.546875 25.789062 -33.628906 23.875 -31.796875 C 21.957031 -29.972656 21 -27.9375 21 -25.6875 L 21 0 Z M 5.3125 0 "/></g></g></g><g fill="#dc291e" fill-opacity="1"><g transform="translate(152.633607, 207.788303)"><g><path d="M 9.609375 -5.40625 C 4.554688 -9.894531 2.03125 -15.648438 2.03125 -22.671875 C 2.03125 -29.703125 4.660156 -35.476562 9.921875 -40 C 15.179688 -44.519531 21.675781 -46.78125 29.40625 -46.78125 C 37.03125 -46.78125 43.453125 -44.503906 48.671875 -39.953125 C 53.898438 -35.410156 56.515625 -29.648438 56.515625 -22.671875 C 56.515625 -15.703125 53.960938 -9.957031 48.859375 -5.4375 C 43.753906 -0.925781 37.269531 1.328125 29.40625 1.328125 C 21.257812 1.328125 14.660156 -0.914062 9.609375 -5.40625 Z M 21.75 -30.390625 C 19.707031 -28.378906 18.6875 -25.804688 18.6875 -22.671875 C 18.6875 -19.546875 19.660156 -16.992188 21.609375 -15.015625 C 23.566406 -13.035156 26.140625 -12.046875 29.328125 -12.046875 C 32.398438 -12.046875 34.921875 -13.050781 36.890625 -15.0625 C 38.867188 -17.070312 39.859375 -19.613281 39.859375 -22.6875 C 39.859375 -25.8125 38.835938 -28.378906 36.796875 -30.390625 C 34.765625 -32.398438 32.273438 -33.40625 29.328125 -33.40625 C 26.316406 -33.40625 23.789062 -32.398438 21.75 -30.390625 Z M 21.75 -30.390625 "/></g></g></g><g fill="#dc291e" fill-opacity="1"><g transform="translate(202.861835, 207.788303)"><g><path d="M 16.828125 -45.453125 L 27.90625 -20.734375 L 38.984375 -45.453125 L 57.578125 -45.453125 L 33.21875 0 L 22.59375 0 L -1.765625 -45.453125 Z M 16.828125 -45.453125 "/></g></g></g><g fill="#dc291e" fill-opacity="1"><g transform="translate(250.343876, 207.788303)"><g><path d="M 51.296875 -20.546875 L 18.34375 -20.546875 C 18.34375 -17.359375 19.375 -14.992188 21.4375 -13.453125 C 23.507812 -11.921875 25.753906 -11.15625 28.171875 -11.15625 C 30.710938 -11.15625 32.71875 -11.492188 34.1875 -12.171875 C 35.664062 -12.859375 37.351562 -14.207031 39.25 -16.21875 L 50.59375 -10.546875 C 45.863281 -2.628906 38.003906 1.328125 27.015625 1.328125 C 20.171875 1.328125 14.296875 -1.015625 9.390625 -5.703125 C 4.484375 -10.398438 2.03125 -16.054688 2.03125 -22.671875 C 2.03125 -29.296875 4.484375 -34.96875 9.390625 -39.6875 C 14.296875 -44.414062 20.171875 -46.78125 27.015625 -46.78125 C 34.222656 -46.78125 40.085938 -44.695312 44.609375 -40.53125 C 49.128906 -36.363281 51.390625 -30.414062 51.390625 -22.6875 C 51.390625 -21.613281 51.359375 -20.898438 51.296875 -20.546875 Z M 18.78125 -29.234375 L 36.0625 -29.234375 C 35.707031 -31.597656 34.773438 -33.414062 33.265625 -34.6875 C 31.753906 -35.957031 29.820312 -36.59375 27.46875 -36.59375 C 24.863281 -36.59375 22.789062 -35.910156 21.25 -34.546875 C 19.71875 -33.191406 18.894531 -31.421875 18.78125 -29.234375 Z M 18.78125 -29.234375 "/></g></g></g><g fill="#dc291e" fill-opacity="1"><g transform="translate(295.434078, 207.788303)"><g><path d="M 5.3125 0 L 5.3125 -45.453125 L 21 -45.453125 L 21 -38.890625 L 21.171875 -38.890625 C 21.285156 -39.128906 21.472656 -39.425781 21.734375 -39.78125 C 22.003906 -40.132812 22.582031 -40.753906 23.46875 -41.640625 C 24.363281 -42.523438 25.3125 -43.320312 26.3125 -44.03125 C 27.3125 -44.738281 28.609375 -45.375 30.203125 -45.9375 C 31.804688 -46.5 33.429688 -46.78125 35.078125 -46.78125 C 36.796875 -46.78125 38.476562 -46.539062 40.125 -46.0625 C 41.78125 -45.59375 42.992188 -45.125 43.765625 -44.65625 L 45 -43.9375 L 38.453125 -30.65625 C 36.503906 -32.3125 33.785156 -33.140625 30.296875 -33.140625 C 28.410156 -33.140625 26.785156 -32.722656 25.421875 -31.890625 C 24.066406 -31.066406 23.109375 -30.0625 22.546875 -28.875 C 21.984375 -27.695312 21.582031 -26.691406 21.34375 -25.859375 C 21.113281 -25.035156 21 -24.390625 21 -23.921875 L 21 0 Z M 5.3125 0 "/></g></g></g><g fill="#dc291e" fill-opacity="1"><g transform="translate(331.222641, 207.788303)"><g/></g></g><g fill="#dc291e" fill-opacity="1"><g transform="translate(347.079167, 207.788303)"><g><path d="M 15.421875 -18.953125 C 18.253906 -18.953125 20.660156 -17.960938 22.640625 -15.984375 C 24.617188 -14.003906 25.609375 -11.597656 25.609375 -8.765625 C 25.609375 -5.992188 24.617188 -3.617188 22.640625 -1.640625 C 20.660156 0.335938 18.253906 1.328125 15.421875 1.328125 C 12.640625 1.328125 10.257812 0.335938 8.28125 -1.640625 C 6.300781 -3.617188 5.3125 -5.992188 5.3125 -8.765625 C 5.3125 -11.597656 6.300781 -14.003906 8.28125 -15.984375 C 10.257812 -17.960938 12.640625 -18.953125 15.421875 -18.953125 Z M 15.421875 -18.953125 "/></g></g></g><g fill="#000000" fill-opacity="1"><g transform="translate(4.16638, 240.274242)"><g><path d="M 5.59375 0.304688 C 8.371094 0.304688 10.183594 -1.09375 10.183594 -3.082031 C 10.183594 -5.878906 7.605469 -6.226562 5.617188 -6.46875 C 4.21875 -6.644531 3.277344 -6.949219 3.277344 -7.84375 C 3.277344 -8.652344 4.128906 -9.113281 5.484375 -9.113281 C 6.597656 -9.113281 7.539062 -8.914062 8.414062 -8.105469 L 9.679688 -9.59375 C 8.457031 -10.640625 7.1875 -11.011719 5.527344 -11.011719 C 3.519531 -11.011719 1.050781 -10.140625 1.050781 -7.78125 C 1.050781 -5.417969 3.429688 -4.742188 5.441406 -4.546875 C 7.015625 -4.390625 7.933594 -4.019531 7.933594 -3.101562 C 7.933594 -2.074219 6.6875 -1.683594 5.636719 -1.683594 C 4.347656 -1.683594 2.882812 -2.164062 1.855469 -3.277344 L 0.675781 -1.683594 C 2.097656 -0.0859375 3.847656 0.304688 5.59375 0.304688 Z M 5.59375 0.304688 "/></g></g></g><g fill="#000000" fill-opacity="1"><g transform="translate(18.347555, 240.274242)"><g><path d="M 6.402344 0.285156 C 7.714844 0.285156 9.417969 -0.351562 10.117188 -1.75 L 10.226562 0 L 12.367188 0 L 12.367188 -10.792969 L 10.183594 -10.792969 L 10.117188 -9.070312 C 9.441406 -10.292969 7.996094 -11.011719 6.445312 -11.011719 C 3.363281 -11.011719 0.875 -9.003906 0.875 -5.398438 C 0.875 -1.726562 3.257812 0.285156 6.402344 0.285156 Z M 6.621094 -1.8125 C 4.699219 -1.8125 3.125 -3.191406 3.125 -5.398438 C 3.125 -7.582031 4.699219 -8.960938 6.621094 -8.960938 C 8.960938 -8.960938 10.117188 -7.167969 10.117188 -5.398438 C 10.117188 -3.605469 8.960938 -1.8125 6.621094 -1.8125 Z M 6.621094 -1.8125 "/></g></g></g><g fill="#000000" fill-opacity="1"><g transform="translate(35.522017, 240.274242)"><g><path d="M 2.664062 -12.585938 C 3.363281 -12.585938 4.066406 -13.046875 4.066406 -13.984375 C 4.066406 -14.925781 3.363281 -15.363281 2.664062 -15.363281 C 1.964844 -15.363281 1.265625 -14.925781 1.265625 -13.984375 C 1.265625 -13.046875 1.964844 -12.585938 2.664062 -12.585938 Z M 0.371094 5.398438 C 2.820312 5.398438 3.78125 4 3.78125 1.265625 L 3.78125 -10.792969 L 1.53125 -10.792969 L 1.53125 1.265625 C 1.53125 2.578125 1.332031 3.277344 0.175781 3.277344 C -0.21875 3.277344 -0.632812 3.167969 -1.09375 2.949219 L -1.902344 4.71875 C -1.136719 5.222656 -0.394531 5.398438 0.371094 5.398438 Z M 0.371094 5.398438 "/></g></g></g><g fill="#000000" fill-opacity="1"><g transform="translate(44.109886, 240.274242)"><g><path d="M 2.664062 -12.542969 C 3.363281 -12.542969 4.066406 -13 4.066406 -13.941406 C 4.066406 -14.882812 3.363281 -15.316406 2.664062 -15.316406 C 1.964844 -15.316406 1.265625 -14.882812 1.265625 -13.941406 C 1.265625 -13 1.964844 -12.542969 2.664062 -12.542969 Z M 1.53125 0 L 3.78125 0 L 3.78125 -10.792969 L 1.53125 -10.792969 Z M 1.53125 0 "/></g></g></g><g fill="#000000" fill-opacity="1"><g transform="translate(52.697759, 240.274242)"><g><path d="M 1.617188 0 L 3.867188 0 L 3.867188 -15.296875 L 1.617188 -15.296875 Z M 1.617188 0 "/></g></g></g><g fill="#000000" fill-opacity="1"><g transform="translate(61.460416, 240.274242)"><g><path d="M 6.402344 0.242188 C 9.8125 0.242188 11.996094 -2.164062 11.996094 -5.375 C 11.996094 -8.523438 9.722656 -10.992188 6.402344 -10.992188 C 3.058594 -10.992188 0.851562 -8.523438 0.851562 -5.375 C 0.851562 -2.164062 3.015625 0.242188 6.402344 0.242188 Z M 6.402344 -1.855469 C 4.371094 -1.855469 3.101562 -3.453125 3.101562 -5.375 C 3.101562 -7.277344 4.371094 -8.914062 6.402344 -8.914062 C 8.390625 -8.914062 9.722656 -7.277344 9.722656 -5.375 C 9.722656 -3.453125 8.480469 -1.855469 6.402344 -1.855469 Z M 6.402344 -1.855469 "/></g></g></g><g fill="#000000" fill-opacity="1"><g transform="translate(77.586135, 240.274242)"><g/></g></g><g fill="#000000" fill-opacity="1"><g transform="translate(86.305093, 240.274242)"><g><path d="M 6.378906 0.21875 C 7.800781 0.21875 9.265625 -0.328125 10.117188 -1.703125 L 10.25 0 L 12.367188 0 L 12.367188 -15.296875 L 10.117188 -15.296875 L 10.117188 -9.089844 C 9.417969 -10.378906 7.648438 -11.011719 6.335938 -11.011719 C 3.210938 -11.011719 0.875 -9.070312 0.875 -5.398438 C 0.875 -1.8125 3.257812 0.21875 6.378906 0.21875 Z M 6.535156 -1.878906 C 4.609375 -1.878906 3.125 -3.210938 3.125 -5.398438 C 3.125 -7.582031 4.609375 -8.894531 6.535156 -8.894531 C 8.390625 -8.894531 9.964844 -7.496094 9.964844 -5.398438 C 9.964844 -3.277344 8.390625 -1.878906 6.535156 -1.878906 Z M 6.535156 -1.878906 "/></g></g></g><g fill="#000000" fill-opacity="1"><g transform="translate(103.479557, 240.274242)"><g><path d="M 6.6875 0.304688 C 8.347656 0.304688 10.203125 -0.285156 11.320312 -1.53125 L 9.855469 -2.949219 C 9.179688 -2.183594 7.84375 -1.792969 6.730469 -1.792969 C 4.742188 -1.792969 3.410156 -2.839844 3.210938 -4.5 L 11.953125 -4.5 C 11.976562 -4.828125 11.996094 -5.15625 11.996094 -5.464844 C 11.996094 -9.179688 9.746094 -11.011719 6.535156 -11.011719 C 3.167969 -11.011719 0.875 -8.675781 0.875 -5.398438 C 0.875 -1.945312 3.148438 0.304688 6.6875 0.304688 Z M 3.257812 -6.402344 C 3.605469 -8.128906 4.9375 -9.003906 6.597656 -9.003906 C 8.433594 -9.003906 9.636719 -8.128906 9.789062 -6.402344 Z M 3.257812 -6.402344 "/></g></g></g><g fill="#000000" fill-opacity="1"><g transform="translate(119.474191, 240.274242)"><g><path d="M 1.617188 0 L 3.867188 0 L 3.867188 -15.296875 L 1.617188 -15.296875 Z M 1.617188 0 "/></g></g></g><g fill="#000000" fill-opacity="1"><g transform="translate(128.236842, 240.274242)"><g><path d="M 2.664062 -12.542969 C 3.363281 -12.542969 4.066406 -13 4.066406 -13.941406 C 4.066406 -14.882812 3.363281 -15.316406 2.664062 -15.316406 C 1.964844 -15.316406 1.265625 -14.882812 1.265625 -13.941406 C 1.265625 -13 1.964844 -12.542969 2.664062 -12.542969 Z M 1.53125 0 L 3.78125 0 L 3.78125 -10.792969 L 1.53125 -10.792969 Z M 1.53125 0 "/></g></g></g><g fill="#000000" fill-opacity="1"><g transform="translate(136.824708, 240.274242)"><g><path d="M 4.980469 0 L 7.453125 0 L 12.019531 -10.792969 L 9.550781 -10.792969 L 7.933594 -6.796875 L 6.226562 -2.359375 L 4.328125 -7.234375 L 2.882812 -10.792969 L 0.394531 -10.792969 Z M 4.980469 0 "/></g></g></g><g fill="#000000" fill-opacity="1"><g transform="translate(152.513454, 240.274242)"><g><path d="M 6.6875 0.304688 C 8.347656 0.304688 10.203125 -0.285156 11.320312 -1.53125 L 9.855469 -2.949219 C 9.179688 -2.183594 7.84375 -1.792969 6.730469 -1.792969 C 4.742188 -1.792969 3.410156 -2.839844 3.210938 -4.5 L 11.953125 -4.5 C 11.976562 -4.828125 11.996094 -5.15625 11.996094 -5.464844 C 11.996094 -9.179688 9.746094 -11.011719 6.535156 -11.011719 C 3.167969 -11.011719 0.875 -8.675781 0.875 -5.398438 C 0.875 -1.945312 3.148438 0.304688 6.6875 0.304688 Z M 3.257812 -6.402344 C 3.605469 -8.128906 4.9375 -9.003906 6.597656 -9.003906 C 8.433594 -9.003906 9.636719 -8.128906 9.789062 -6.402344 Z M 3.257812 -6.402344 "/></g></g></g><g fill="#000000" fill-opacity="1"><g transform="translate(168.508081, 240.274242)"><g><path d="M 1.53125 0 L 3.78125 0 L 3.78125 -5.835938 C 3.78125 -7.824219 5.136719 -8.785156 6.6875 -8.785156 C 7.539062 -8.785156 8.042969 -8.566406 8.585938 -8.128906 L 9.613281 -10.09375 C 9.003906 -10.640625 7.996094 -11.011719 6.949219 -11.011719 C 5.789062 -11.011719 4.566406 -10.730469 3.78125 -9.351562 L 3.628906 -10.792969 L 1.53125 -10.792969 Z M 1.53125 0 "/></g></g></g><g fill="#000000" fill-opacity="1"><g transform="translate(181.400174, 240.274242)"><g><path d="M 2.558594 5.027344 L 5.046875 5.027344 L 11.84375 -10.792969 L 9.332031 -10.792969 L 7.1875 -5.570312 L 6.03125 -2.621094 L 3.101562 -10.792969 L 0.480469 -10.792969 L 4.785156 -0.152344 Z M 2.558594 5.027344 "/></g></g></g></svg>